{"title":"Madras Cafe 2013 CamRip x264 MP3 [TMB] - Hindi","uid":8842510,"size":361260622,"categoryP":"video","categoryS":"movies","magnet":"?xt=urn:btih:11b8b55e904b3a36bc88f205ecff551416e3f9c7&amp;dn=Madras+Cafe+2013+CamRip+x264+MP3+%5BTMB%5D+-+Hindi&amp;tr=udp%3A%2F%2Ftracker.openbittorrent.com%3A80&amp;tr=udp%3A%2F%2Fopen.demonii.com%3A1337&amp;tr=udp%3A%2F%2Ftracker.coppersurfer.tk%3A6969&amp;tr=udp%3A%2F%2Fexodus.desync.com%3A6969","seeders":1,"leechers":0,"uploader":"SJonam","files":2,"time":1377283814,"description":" &lt;a href=&quot;http://desibbrg.org/images/15651891654054630733.jpg&quot; rel=&quot;nofollow&quot; target=&quot;_NEW&quot;&gt;http://desibbrg.org/images/15651891654054630733.jpg&lt;/a&gt; &lt;a href=&quot;\nhttp://desibbrg.org/images/11334741617610709719.jpg&quot; rel=&quot;nofollow&quot; target=&quot;_NEW&quot;&gt;\nhttp://desibbrg.org/images/11334741617610709719.jpg&lt;/a&gt; &lt;a href=&quot;\nhttp://desibbrg.org/images/06246149232243397096.png&quot; rel=&quot;nofollow&quot; target=&quot;_NEW&quot;&gt;\nhttp://desibbrg.org/images/06246149232243397096.png&lt;/a&gt; &lt;a href=&quot;\nhttp://desibbrg.org/images/14072418953126017191.png&quot; rel=&quot;nofollow&quot; target=&quot;_NEW&quot;&gt;\nhttp://desibbrg.org/images/14072418953126017191.png&lt;/a&gt; &lt;a href=&quot;\nhttp://desibbrg.org/images/75554116145924388509.png&quot; rel=&quot;nofollow&quot; target=&quot;_NEW&quot;&gt;\nhttp://desibbrg.org/images/75554116145924388509.png&lt;/a&gt; &lt;a href=&quot;\nhttp://desibbrg.org/images/92350818725450060965.png&quot; rel=&quot;nofollow&quot; target=&quot;_NEW&quot;&gt;\nhttp://desibbrg.org/images/92350818725450060965.png&lt;/a&gt;\n\nMedia Info - \nVideo\nFormat                         : AVC\nFormat/Info                    : Advanced Video Codec\nFormat profile                 : &lt;a class=&quot;__cf_email__&quot; href=&quot;/cdn-cgi/l/email-protection&quot; data-cfemail=&quot;b5f8d4dcdbf5f9849b86&quot;&gt;[email&amp;#160;protected]&lt;/a&gt;&lt;script cf-hash='f9e31' type=&quot;text/javascript&quot;&gt;\n/* &lt;![CDATA[ */!function(){try{var t=&quot;currentScript&quot;in document?document.currentScript:function(){for(var t=document.getElementsByTagName(&quot;script&quot;),e=t.length;e--;)if(t[e].getAttribute(&quot;cf-hash&quot;))return t[e]}();if(t&amp;&amp;t.previousSibling){var e,r,n,i,c=t.previousSibling,a=c.getAttribute(&quot;data-cfemail&quot;);if(a){for(e=&quot;&quot;,r=parseInt(a.substr(0,2),16),n=2;a.length-n;n+=2)i=parseInt(a.substr(n,2),16)^r,e+=String.fromCharCode(i);e=document.createTextNode(e),c.parentNode.replaceChild(e,c)}}}catch(u){}}();/* ]]&gt; */&lt;/script&gt;\nFormat settings, CABAC         : Yes\nFormat settings, ReFrames      : 1 frame\nCodec ID                       : H264\nDuration                       : 1h 57mn\nBit rate                       : 135 Kbps\nWidth                          : 384 pixels\nHeight                         : 216 pixels\nDisplay aspect ratio           : 16:9\nFrame rate mode                : Variable\nFrame rate                     : 25.000 fps\nColor space                    : YUV\nChroma subsampling             : 4:2:0\nBit depth                      : 8 bits\nScan type                      : Progressive\nBits/(Pixel*Frame)             : 0.065\nStream size                    : 113 MiB (33%)\nWriting library                : x264 core 129\n\nAudio\nFormat                         : MPEG Audio\nFormat version                 : Version 1\nFormat profile                 : Layer 3\nMode                           : Joint stereo\nMode extension                 : MS Stereo\nCodec ID                       : 55\nCodec ID/Hint                  : MP3\nDuration                       : 1h 57mn\nBit rate mode                  : Constant\nBit rate                       : 256 Kbps\nChannel count                  : 2 channels\nSampling rate                  : 48.0 KHz\nCompression mode               : Lossy\nStream size                    : 216 MiB (64%)\nAlignment                      : Aligned on interleaves\nInterleave, duration           : 24 ms (0.60 video frame)\nWriting library                : LAME3.99.5\n\nRipper : Manojvb\n\nSeeding will be very slow for first 4 hours...\n &lt;a href=&quot;\nhttp://desibbrg.org/images/48627592875446061657.gif&quot; rel=&quot;nofollow&quot; target=&quot;_NEW&quot;&gt;\nhttp://desibbrg.org/images/48627592875446061657.gif&lt;/a&gt;","torrent":{"xt":"urn:btih:11b8b55e904b3a36bc88f205ecff551416e3f9c7","amp;dn":"Madras+Cafe+2013+CamRip+x264+MP3+%5BTMB%5D+-+Hindi","amp;tr":["udp%3A%2F%2Ftracker.openbittorrent.com%3A80","udp%3A%2F%2Fopen.demonii.com%3A1337","udp%3A%2F%2Ftracker.coppersurfer.tk%3A6969","udp%3A%2F%2Fexodus.desync.com%3A6969"],"infoHash":"11b8b55e904b3a36bc88f205ecff551416e3f9c7","infoHashBuffer":{"type":"Buffer","data":[17,184,181,94,144,75,58,54,188,136,242,5,236,255,85,20,22,227,249,199]},"announce":[],"urlList":[]}}